<?xml version="1.0" encoding="UTF-8"?>
<svg version="1.1" xmlns="http://www.w3.org/2000/svg" width="1024" height="996">
<path d="M0 0 C337.92 0 675.84 0 1024 0 C1024 328.68 1024 657.36 1024 996 C686.08 996 348.16 996 0 996 C0 667.32 0 338.64 0 0 Z " fill="#51BFBE" transform="translate(0,0)"/>
<path d="M0 0 C19.09121621 -0.09408619 38.18238438 -0.16429021 57.27378559 -0.20724869 C66.14134353 -0.22773893 75.00875615 -0.25559502 83.8762207 -0.30175781 C91.61903741 -0.34204609 99.36174873 -0.36753068 107.10466737 -0.37635398 C111.19187797 -0.38149897 115.2787875 -0.39329558 119.36590004 -0.42292023 C144.19855059 -0.59580944 168.24700594 0.77043781 192.25 7.875 C193.46469971 8.22449707 194.67939941 8.57399414 195.9309082 8.93408203 C216.03968061 14.82991846 234.8364495 23.45464175 251 37 C251.54575684 37.45149414 252.09151367 37.90298828 252.65380859 38.36816406 C271.72789898 54.35191859 285.11994817 75.81366437 291 100 C291.26111572 101.0612207 291.52223145 102.12244141 291.79125977 103.21582031 C293.84026948 112.34218106 294.44075229 121.03080284 294.33618164 130.37109375 C294.31244148 132.63056957 294.31567155 134.88886686 294.32226562 137.1484375 C294.29969279 149.28137597 292.6606173 160.80066555 289.9375 172.625 C289.76412109 173.39972656 289.59074219 174.17445313 289.41210938 174.97265625 C288.71972289 178.03401258 287.99316327 181.02051019 287 184 C287.56847656 183.23816406 288.13695312 182.47632813 288.72265625 181.69140625 C303.0535076 162.52778032 303.0535076 162.52778032 306 160 C310.21284637 159.54208192 313.18791906 160.20607956 317 162 C316.77827255 171.97773506 309.41206436 179.63963317 303.36328125 187.015625 C279.08790263 217.67081387 257.07708817 251.33404628 241 287 C240.6498584 287.77150391 240.2997168 288.54300781 239.93896484 289.33789062 C238.82934897 291.78555842 237.72591186 294.23590612 236.625 296.6875 C236.10570923 297.83786743 236.10570923 297.83786743 235.57592773 299.01147461 C235.25438721 299.73343018 234.93284668 300.45538574 234.6015625 301.19921875 C234.31619629 301.83690186 234.03083008 302.47458496 233.73681641 303.1315918 C232.97423277 305.06534016 232.45953131 306.97475183 232 309 C232.66 308.78085937 233.32 308.56171875 234 308.3359375 C241.62140642 305.89470576 249.32047767 303.77190137 257.0625 301.75 C258.05443359 301.47978027 259.04636719 301.20956055 260.06835938 300.93115234 C267.59234897 299.00557568 276.54826491 296.79696385 283.80859375 300.38989258 C286 302 286 302 286.62890625 304.12109375 C286.59603516 305.26771484 286.59603516 305.26771484 286.5625 306.4375 C286.56378906 307.19933594 286.56507813 307.96117187 286.56640625 308.74609375 C285.75694699 311.96718334 284.72096202 313.08588476 282 315 C279.17413281 315.32845158 276.63470508 315.45487479 273.8125 315.4375 C259.69910161 315.81248331 247.52022958 320.32476945 234.9765625 326.546875 C229.95987344 328.9959673 225.53348076 329.89312321 220 329 C217.24430553 326.81840855 215.56411253 325.12822506 214 322 C213.2711921 314.91595363 214.47132867 309.28803558 217.25 302.8125 C217.59482422 301.97750977 217.93964844 301.14251953 218.29492188 300.28222656 C222.86021721 289.53360662 228.42958318 279.25336243 234 269 C231.94621555 269 230.00192627 271.71428966 228.625 273 C193.15918753 305.15500112 147.86859666 322.76363698 101.375 331.25 C100.51922363 331.41306641 99.66344727 331.57613281 98.78173828 331.74414062 C82.31568685 334.61417369 65.27413799 334.15217545 48.6171875 334.1328125 C46.53923532 334.13348804 44.46128321 334.13446014 42.3833313 334.13571167 C38.07569612 334.13717097 33.76808193 334.1350878 29.46044922 334.13037109 C23.92892777 334.12460974 18.39745417 334.12800381 12.86593437 334.13394356 C8.59733717 334.13754234 4.3287515 334.13641487 0.06015396 334.13381577 C-1.98209514 334.13314792 -4.02434528 334.13396995 -6.06659317 334.13629532 C-8.89745159 334.13881751 -11.72822965 334.13499044 -14.55908203 334.12939453 C-15.40460632 334.13141876 -16.25013062 334.13344299 -17.12127686 334.13552856 C-22.88572369 334.11427631 -22.88572369 334.11427631 -24 333 C-25.08754718 324.12363995 -22.67126024 315.30363821 -20.8125 306.6875 C-20.5167289 305.27296376 -20.22180338 303.85825044 -19.92773438 302.44335938 C-18.26763406 294.5303989 -16.45223593 286.66290565 -14.55078125 278.8046875 C-11.87918983 267.73718455 -9.60630678 256.60075472 -7.375 245.4375 C-2.81732603 222.67800055 -2.81732603 222.67800055 0 212 C3.17987282 199.46217891 5.84441384 186.87314587 8.24563599 174.16317749 C10.22203543 163.72991219 12.40159052 153.35585712 14.75 143 C14.89870544 142.34147034 15.04741089 141.68294067 15.20062256 141.00445557 C17.79366201 129.55021422 17.79366201 129.55021422 19.12890625 125.0625 C20.07983222 121.71933424 20.64561438 118.43315452 21.1875 115 C22.93803616 104.513592 25.38799403 94.17858049 27.76239014 83.82058716 C27.99022186 82.82658401 27.99022186 82.82658401 28.22265625 81.8125 C28.37406067 81.15248993 28.52546509 80.49247986 28.68145752 79.81246948 C30.33631764 72.57349034 31.8892158 65.31242474 33.40185547 58.04248047 C33.58506348 57.18025879 33.76827148 56.31803711 33.95703125 55.4296875 C34.11147705 54.68960449 34.26592285 53.94952148 34.42504883 53.18701172 C35.08089825 50.69227749 36.02648884 48.38646674 37 46 C50.73600382 45.93007367 64.47196434 45.87697423 78.20811081 45.84456348 C84.58834939 45.82899742 90.96846498 45.80792722 97.34863281 45.77368164 C103.52136674 45.74076191 109.69398337 45.72307914 115.8667984 45.71536827 C118.20596408 45.70988269 120.54512432 45.69917341 122.8842392 45.68280983 C140.46149274 45.56488764 158.55855571 45.76741744 175.1875 52.1875 C176.00154297 52.48865723 176.81558594 52.78981445 177.65429688 53.10009766 C191.03814606 58.16193805 202.95872996 63.77709936 214 73 C214.78632813 73.61230469 215.57265625 74.22460938 216.3828125 74.85546875 C227.10746255 83.61829257 234.79966054 96.3154332 240 109 C240.2568457 109.61133789 240.51369141 110.22267578 240.77832031 110.85253906 C244.99888409 121.42291125 245.47172307 132.06797605 245.5 143.3125 C245.50458221 143.99173523 245.50916443 144.67097046 245.5138855 145.37078857 C245.58693395 172.70576579 234.04704352 200.80004214 217 222 C216.29230469 222.90878906 215.58460938 223.81757813 214.85546875 224.75390625 C193.56989104 251.55658641 163.53467361 270.01836278 130.8125 279.5 C129.73452148 279.81404785 128.65654297 280.1280957 127.54589844 280.45166016 C107.01862424 286.04083005 86.72725127 286.45212798 65.61175537 286.3225708 C62.59208127 286.30897498 59.57255298 286.31434528 56.55286217 286.31969929 C53.63614334 286.32302878 50.71951599 286.31643482 47.80281448 286.30657005 C46.41451113 286.30272823 45.02619762 286.30156561 43.63788986 286.3031559 C41.7173914 286.30352511 39.79690629 286.28946091 37.87646484 286.2746582 C36.78651215 286.27005081 35.69655945 286.26544342 34.57357788 286.26069641 C32 286 32 286 30 284 C29.67942739 275.56511699 32.12527985 266.92020115 33.9375 258.75 C34.20240234 257.5228125 34.46730469 256.295625 34.74023438 255.03125 C36.86896039 245.26974709 36.86896039 245.26974709 38.1328125 241.0234375 C39.28390465 237.01017027 39.78730923 232.99778536 40.33984375 228.8671875 C41.3096088 223.1863153 42.67246623 217.60648474 44 212 C44.4656196 210.00929589 44.93048779 208.01841585 45.39453125 206.02734375 C45.62487061 205.03976074 45.85520996 204.05217773 46.0925293 203.03466797 C50.18985519 185.40880284 54.27721026 167.74765382 57.5 149.9375 C59.43056496 139.30225755 61.89797137 128.77846617 64.27441406 118.23583984 C64.93949754 115.26981819 65.59406418 112.30179827 66.2421875 109.33203125 C66.42531494 108.49526855 66.60844238 107.65850586 66.79711914 106.79638672 C67.13151361 105.26587068 67.46413968 103.7349668 67.79467773 102.20361328 C68.88838985 97.2232203 68.88838985 97.2232203 70 95 C78.71065801 94.97674908 87.42130521 94.95902024 96.13198757 94.94818783 C100.17743978 94.94298677 104.22287063 94.93593998 108.26831055 94.92456055 C112.17811859 94.91363244 116.0879062 94.90770228 119.99772835 94.90512276 C121.48352441 94.90328629 122.96931946 94.8997004 124.45510674 94.89426994 C135.19364056 94.85661026 145.19783145 94.94138291 155.375 98.6875 C156.11177979 98.9558667 156.84855957 99.2242334 157.60766602 99.50073242 C172.27123292 104.98734101 184.059076 113.21423347 192 127 C192.50789063 127.86109375 193.01578125 128.7221875 193.5390625 129.609375 C200.22210361 143.42348232 199.0370872 163.29178734 194.3828125 177.62890625 C184.15088155 202.57285091 166.6250055 220.72554634 142.02050781 231.89892578 C138.09020765 233.53812802 134.08106647 234.79745837 130 236 C128.84757813 236.38929688 127.69515625 236.77859375 126.5078125 237.1796875 C116.56333141 240.28065472 105.38724775 241.65362205 95 240 C93 238 93 238 92.6875 234.6875 C92.83563623 228.49996366 93.51833341 219.48166659 98 215 C100.8596706 214.48519978 103.68434528 214.06248277 106.5625 213.6875 C127.484743 210.64263745 146.96982484 204.14189317 160.375 186.6875 C167.69788053 175.98135844 170.97351975 164.92617884 170 152 C168.36221278 143.49183418 163.90399098 135.73654009 156.8125 130.6875 C151.83189197 127.65033869 146.5322591 125.77678394 141 124 C140.1654126 123.66081543 139.3308252 123.32163086 138.47094727 122.97216797 C133.87277085 121.68427752 129.54321176 121.64489341 124.7890625 121.5859375 C123.82092621 121.56657135 122.85278992 121.5472052 121.85531616 121.5272522 C118.7786323 121.4677167 115.70191049 121.4211753 112.625 121.375 C110.53253623 121.33679627 108.44008778 121.29774315 106.34765625 121.2578125 C101.23189604 121.16203655 96.11606224 121.07790958 91 121 C89.37229572 128.50300065 87.78235164 136.00933135 86.31396484 143.54516602 C84.0580973 155.11454384 81.53916058 166.60835621 78.90933228 178.09677124 C77.02932848 186.31806853 75.27689147 194.52777926 73.80078125 202.83203125 C72.73900921 208.56792426 71.40746985 214.24785978 70.125 219.9375 C67.1998765 232.91699165 64.54514937 245.94116311 62 259 C107.36588913 260.01682165 150.35544739 252.87050387 184.80908203 220.65087891 C204.95283298 201.0435968 217.63036297 173.47827595 218.1875 145.25 C218.07191285 135.16823161 216.76502056 125.94894105 212 117 C211.64035156 116.27425781 211.28070313 115.54851562 210.91015625 114.80078125 C200.99440238 95.67038741 183.91138692 84.74998133 164 78 C148.03683518 73.19744006 131.16635382 72.70572488 114.6171875 72.5859375 C112.93896609 72.56715697 111.26075344 72.54757891 109.58255005 72.5272522 C105.2328618 72.47665006 100.88314317 72.43664723 96.5333252 72.39910889 C92.06771788 72.35860939 87.60222896 72.30773058 83.13671875 72.2578125 C74.42456106 72.16190885 65.71234309 72.07723998 57 72 C56.94254105 72.72631119 56.88508209 73.45262238 56.82588196 74.20094299 C56.40804072 79.1737373 55.97069931 83.99257534 54.73046875 88.83984375 C54.48377441 89.82831299 54.23708008 90.81678223 53.98291016 91.83520508 C53.58918213 93.37084106 53.58918213 93.37084106 53.1875 94.9375 C51.34254371 102.37126808 49.56385077 109.78908661 48.125 117.3125 C46.28815489 126.85405718 44.18188867 136.33063444 42.0625 145.8125 C41.88708679 146.59799225 41.71167358 147.3834845 41.53094482 148.19277954 C40.83498177 151.30920984 40.13875239 154.42558035 39.44195557 157.54182434 C36.31630452 171.52450507 33.27139149 185.51348006 30.52075195 199.57495117 C29.12526367 206.60010161 27.47051714 213.55212306 25.78295898 220.51196289 C24.3329454 226.51900262 23.05227963 232.53846521 21.875 238.60546875 C19.30481915 251.69494177 16.532992 264.77623384 13.4152832 277.74658203 C13.14784302 278.86202393 13.14784302 278.86202393 12.875 280 C12.58890869 281.18835449 12.30281738 282.37670898 12.00805664 283.60107422 C10.85095715 288.54442828 9.86594643 293.51963262 8.8828125 298.5 C8.70049072 299.4178125 8.51816895 300.335625 8.33032227 301.28125 C7.88566079 303.52059433 7.44224497 305.76017742 7 308 C16.10371645 307.93799211 25.20714108 307.86034445 34.31056213 307.76428509 C38.5405171 307.72010881 42.77038727 307.68074766 47.00048828 307.65356445 C66.17687927 307.52647866 85.03646543 307.21114389 104 304 C104.68310242 303.88703583 105.36620483 303.77407166 106.07000732 303.65768433 C109.88811428 303.01130704 113.66312739 302.23882041 117.4375 301.375 C118.54528809 301.12411621 119.65307617 300.87323242 120.79443359 300.61474609 C158.01299816 291.77579874 191.47381956 273.4721588 219 247 C219.74121094 246.33355469 220.48242188 245.66710937 221.24609375 244.98046875 C234.56164594 232.59334038 245.23541438 215.86500768 252.5625 199.3125 C252.94744629 198.44890869 253.33239258 197.58531738 253.72900391 196.69555664 C256.98896174 189.25925046 259.67544048 181.77903777 262 174 C262.30679687 173.02804687 262.61359375 172.05609375 262.9296875 171.0546875 C264.69750749 165.14511781 265.45659196 159.49455849 265.7890625 153.3359375 C266 151 266 151 267 150 C268.76697214 128.31992283 266.36178327 108.26524149 256 89 C255.48824219 87.99839844 254.97648437 86.99679687 254.44921875 85.96484375 C250.05124076 77.83015892 244.48869933 71.48869933 238 65 C237.195625 64.195625 236.39125 63.39125 235.5625 62.5625 C201.06031416 29.87621868 152.13355453 26.99400203 107.3046875 26.68359375 C104.77450257 26.66297341 102.24432068 26.64197581 99.71414185 26.62062073 C93.78612934 26.57148309 87.85809787 26.52608694 81.93004143 26.48259836 C75.16793509 26.43277525 68.40587122 26.37802812 61.64380622 26.32291877 C47.7625773 26.20989745 33.88130743 26.10289268 20 26 C19.86066575 26.73218058 19.7213315 27.46436115 19.577775 28.21872902 C18.93492181 31.59222958 18.28986141 34.96530463 17.64477539 38.33837891 C17.42570778 39.48975845 17.20664017 40.641138 16.98093414 41.82740784 C15.02057291 52.06355502 12.78396929 62.22163397 10.4375 72.375 C7.56616343 84.84515891 4.87997915 97.33223742 2.41555786 109.88946533 C-0.50296103 124.71203485 -3.75451148 139.46233995 -7.05596924 154.20333862 C-11.02814349 171.95667742 -14.82183166 189.74797999 -18.61157227 207.54101562 C-21.07865662 219.11098569 -23.58441001 230.67027167 -26.16796875 242.21484375 C-28.58215452 253.01108098 -30.80775475 263.82380434 -32.89648438 274.6875 C-33.95056175 280.07694242 -35.05704289 285.39176566 -36.55859375 290.67578125 C-38.1020001 296.12679148 -39.0071378 301.59546124 -39.875 307.1875 C-43.92714922 331.92714922 -43.92714922 331.92714922 -48 336 C-51.07534418 336.25121222 -54.16560967 336.18522873 -57.25 336.1875 C-58.10980469 336.19974609 -58.96960938 336.21199219 -59.85546875 336.22460938 C-64.34736504 336.23499126 -67.92197251 336.13169619 -72 334 C-71.91031521 332.08260113 -71.80219406 330.16606552 -71.6875 328.25 C-71.62949219 327.18265625 -71.57148438 326.1153125 -71.51171875 325.015625 C-71.08536946 320.60439308 -69.88927455 316.40385005 -68.77807617 312.12402344 C-67.57364906 307.2881749 -66.70631351 302.40097215 -65.8125 297.5 C-63.47596568 285.01575706 -60.74779982 272.6359078 -57.95800781 260.24682617 C-55.67869333 250.11618694 -53.4927182 239.97400519 -51.45898438 229.79052734 C-51.27787109 228.89672363 -51.09675781 228.00291992 -50.91015625 227.08203125 C-50.75683838 226.31093018 -50.60352051 225.5398291 -50.44555664 224.74536133 C-50 223 -50 223 -49 222 C-48.47837536 219.35610823 -48.00353553 216.72002181 -47.5625 214.0625 C-45.65290671 202.73628794 -43.273706 191.53098503 -40.8125 180.3125 C-40.66204224 179.6254599 -40.51158447 178.9384198 -40.35656738 178.2305603 C-36.47041173 160.49162177 -32.51257822 142.76682122 -28.38671875 125.08203125 C-27.3333832 120.52530026 -26.38421552 115.97864843 -25.5625 111.375 C-24.46019796 105.33542753 -23.26443557 99.32022871 -22 93.3125 C-21.7690564 92.21010986 -21.7690564 92.21010986 -21.53344727 91.08544922 C-20.59241877 86.64519967 -19.58739549 82.22362017 -18.55078125 77.8046875 C-16.93445152 70.83724234 -15.55501622 63.83226206 -14.1875 56.8125 C-4.88132153 9.76264306 -4.88132153 9.76264306 0 0 Z " fill="#FCFEFE" transform="translate(235,256)"/>
<path d="M0 0 C2.5625 2.125 2.5625 2.125 3.5625 4.125 C3.68667964 6.53928322 3.73814978 8.95755432 3.75 11.375 C3.76417969 12.67953125 3.77835938 13.9840625 3.79296875 15.328125 C3.5625 19.125 3.5625 19.125 2.48828125 22.171875 C1.2958025 25.17100352 1.2958025 25.17100352 2.19140625 28.546875 C2.6736653 33.1968675 1.00204926 35.66620587 -1.5 39.375 C-2.34413511 40.69944701 -3.18657636 42.02497509 -4.02734375 43.3515625 C-4.44226074 43.99512695 -4.85717773 44.63869141 -5.28466797 45.30175781 C-7.90241234 49.44180757 -10.13507622 53.8049259 -12.4375 58.125 C-13.07751675 59.31412966 -13.71817684 60.50291321 -14.359375 61.69140625 C-16.05498295 64.83438179 -17.74708499 67.97922769 -19.4375 71.125 C-6.33973456 61.94039411 4.4455302 49.34513466 11.2265625 34.83984375 C12.5625 33.125 12.5625 33.125 15.0859375 32.25390625 C15.90320313 32.21136719 16.72046875 32.16882813 17.5625 32.125 C19.5625 34.125 19.5625 34.125 19.9296875 36.80859375 C19.47390123 40.92521659 17.86461293 43.76407856 15.6875 47.1875 C15.07902222 48.16541504 15.07902222 48.16541504 14.45825195 49.16308594 C3.71794037 66.12212227 -9.62025301 78.17528976 -25.81860352 89.85742188 C-29.72955392 92.91965298 -31.36394995 95.77433878 -33.36328125 100.375 C-33.63335495 100.98835205 -33.90342865 101.6017041 -34.1816864 102.23364258 C-35.04444755 104.19459186 -35.89802262 106.15934405 -36.75 108.125 C-41.67581214 119.45593257 -46.83349279 130.49101277 -53.6875 140.8125 C-54.35265625 141.82699219 -55.0178125 142.84148437 -55.703125 143.88671875 C-56.27546875 144.62535156 -56.8478125 145.36398437 -57.4375 146.125 C-58.0975 146.125 -58.7575 146.125 -59.4375 146.125 C-59.69015625 146.71152344 -59.9428125 147.29804687 -60.203125 147.90234375 C-63.22941909 153.35158848 -69.59615302 158.21532887 -75.4375 160.125 C-86.51654624 161.48692695 -86.51654624 161.48692695 -91.0625 157.9375 C-96.57621006 151.40810651 -96.10448063 144.31804585 -95.4375 136.125 C-92.98080624 122.49236333 -78.8155771 110.32253727 -68.03515625 102.69921875 C-62.16858744 98.64001955 -56.31042991 94.92202279 -49.875 91.8125 C-41.22088075 87.63025496 -36.89420585 82.69000472 -32.4375 74.125 C-31.9425 72.64 -31.9425 72.64 -31.4375 71.125 C-32.35273437 71.76308594 -33.26796875 72.40117188 -34.2109375 73.05859375 C-35.41141066 73.89329774 -36.6119341 74.7279294 -37.8125 75.5625 C-38.41578125 75.98337891 -39.0190625 76.40425781 -39.640625 76.83789062 C-44.65307063 80.31875565 -47.20048934 81.84072253 -53.4375 81.125 C-57.26044492 78.74225721 -59.99992161 76.43773516 -61.4375 72.125 C-63.4788852 52.91589996 -51.86671189 33.87735106 -40.28125 19.4375 C-35.21395204 13.5851277 -29.65721149 8.71801771 -23.4375 4.125 C-22.85871094 3.691875 -22.27992188 3.25875 -21.68359375 2.8125 C-14.98340861 -1.94585603 -7.39245494 -4.03224815 0 0 Z " fill="#FAFDFD" transform="translate(620.4375,493.875)"/>
<path d="M0 0 C3.48939776 0.74772809 5.78682426 2.45036922 8.625 4.5625 C8.03593444 8.40796812 6.90159765 11.22913386 4.98046875 14.6015625 C4.44083496 15.56223633 3.90120117 16.52291016 3.34521484 17.51269531 C2.77754395 18.51913086 2.20987305 19.52556641 1.625 20.5625 C0.51253251 22.6095971 -0.59550829 24.65910572 -1.69921875 26.7109375 C-2.52969727 28.24814453 -2.52969727 28.24814453 -3.37695312 29.81640625 C-4.51309658 31.92018058 -5.64849763 34.02435599 -6.78320312 36.12890625 C-7.33298828 37.14597656 -7.88277344 38.16304688 -8.44921875 39.2109375 C-8.93994873 40.12020996 -9.43067871 41.02948242 -9.9362793 41.96630859 C-11.79921844 45.32800805 -13.77877015 48.60658802 -15.8125 51.8671875 C-22.17550082 62.33432385 -27.18934532 73.48130786 -32.375 84.5625 C-32.76349121 85.39040039 -33.15198242 86.21830078 -33.55224609 87.07128906 C-35.50347412 91.23027758 -37.44526532 95.39348275 -39.375 99.5625 C-38.74335937 98.88445312 -38.11171875 98.20640625 -37.4609375 97.5078125 C-18.30042828 77.5742568 -18.30042828 77.5742568 -7.4375 76.1875 C-3.50842323 76.66861144 -1.97387752 77.58143461 0.625 80.5625 C1.77736223 87.5660038 -1.47607467 91.53601631 -5.3125 97 C-6.50897953 98.76959143 -7.70165015 100.54176378 -8.890625 102.31640625 C-9.77717773 103.63535889 -9.77717773 103.63535889 -10.68164062 104.98095703 C-13.13096475 108.71497567 -15.37880644 112.543501 -17.5625 116.4375 C-17.92400146 117.07228271 -18.28550293 117.70706543 -18.65795898 118.36108398 C-21.43817265 123.36708147 -23.40893182 128.22384095 -24 133.9375 C-24.12375 135.13375 -24.2475 136.33 -24.375 137.5625 C-19.09401069 135.62399051 -16.21551134 133.86313917 -12.625 129.375 C-12.21523926 128.86614258 -11.80547852 128.35728516 -11.38330078 127.83300781 C-6.00121336 121.02285429 -1.1910889 113.77747728 3.625 106.5625 C8.5 107.4375 8.5 107.4375 9.625 108.5625 C10.12594982 113.60190569 8.81996765 117.10468744 6.4375 121.4375 C5.91434204 122.39946289 5.91434204 122.39946289 5.38061523 123.38085938 C-1.46645897 135.43287668 -11.30388914 148.92047754 -24.375 154.5625 C-31.38552632 155.34144737 -31.38552632 155.34144737 -35.3125 152.25 C-39.74814981 146.47021389 -38.78118542 139.53662699 -38.375 132.5625 C-36.5846507 122.34601132 -30.06624936 112.0095122 -24.375 103.5625 C-23.65926473 101.91630887 -22.9724304 100.25521945 -22.375 98.5625 C-39.14741337 109.80504411 -49.02301784 127.69668639 -57.375 145.5625 C-57.89320313 146.655625 -58.41140625 147.74875 -58.9453125 148.875 C-61.6045099 154.56155489 -61.6045099 154.56155489 -63.375 160.5625 C-66.75 160.25 -66.75 160.25 -70.375 159.5625 C-72.88424871 155.79862693 -72.87222967 152.91537451 -72.375 148.5625 C-71.58187444 145.32607001 -70.4783486 142.24412684 -69.3125 139.125 C-68.83550659 137.80967285 -68.83550659 137.80967285 -68.34887695 136.46777344 C-65.56743715 128.8831515 -62.53937498 121.41207161 -59.38769531 113.97509766 C-58.23723961 111.23430614 -57.11392494 108.48313581 -55.9921875 105.73046875 C-51.82547437 95.54221944 -47.54390646 85.51693835 -42.49609375 75.734375 C-39.87141645 70.63327886 -37.45175815 65.43570862 -35 60.25 C-30.48808457 50.76142248 -25.75746323 41.42207219 -20.77734375 32.17138672 C-19.17637432 29.19298154 -17.58866122 26.20764358 -16 23.22265625 C-14.83397457 21.04392753 -13.66731463 18.86553827 -12.5 16.6875 C-11.95230957 15.65826416 -11.40461914 14.62902832 -10.84033203 13.56860352 C-4.04234087 0.95739652 -4.04234087 0.95739652 0 0 Z " fill="#F9FDFD" transform="translate(711.375,422.4375)"/>
<path d="M0 0 C1.99587084 2.93510417 2.35635773 5.37916683 1.74609375 8.875 C0.38687908 12.7462711 -2.00389206 16.00926721 -4.27734375 19.3984375 C-6.12669735 22.19133885 -7.60471984 24.96321377 -9 28 C-7.4221875 27.2575 -7.4221875 27.2575 -5.8125 26.5 C-0.12309527 24.35882618 6.00969571 24.16414359 12 25 C13.875 26.29296875 13.875 26.29296875 15 28 C15.1875 31.6875 15.1875 31.6875 15 35 C11.60650439 36.96465535 8.51830823 38.19396743 4.6875 38.875 C-0.21991909 39.78017944 -5.00686991 40.97934175 -9.8125 42.3125 C-10.54186768 42.50118652 -11.27123535 42.68987305 -12.02270508 42.88427734 C-17.90486222 44.55870569 -21.13969802 47.2118437 -24.58203125 52.37109375 C-40.80649617 81.63147252 -40.80649617 81.63147252 -45 114 C-44.34 114.66 -43.68 115.32 -43 116 C-40.56282742 115.72965366 -40.56282742 115.72965366 -38 115 C-37.278125 114.896875 -36.55625 114.79375 -35.8125 114.6875 C-33.29566915 113.73284002 -33.1864178 112.38536817 -32 110 C-30.84250441 108.51773946 -29.65109014 107.06169459 -28.4375 105.625 C-24.53214871 100.8746727 -21.2905055 95.88300018 -18.23413086 90.55908203 C-16.54975768 87.77316376 -15.49023601 86.19505608 -12.41796875 84.97265625 C-10 85 -10 85 -7 87 C-7.46529123 92.50594618 -8.94900361 96.47062426 -11.875 101.1875 C-12.26993652 101.83388428 -12.66487305 102.48026855 -13.07177734 103.14624023 C-19.68675263 113.6060253 -29.76652091 126.4143251 -42 130 C-47.97529669 130.25115082 -52.43469322 129.02181788 -57 125 C-62.60674808 115.74886566 -60.4694903 103.64715437 -58.03125 93.578125 C-53.95601309 79.43828784 -48.18513844 64.27770766 -40 52 C-40.886875 51.9175 -41.77375 51.835 -42.6875 51.75 C-46.56644281 50.8717488 -48.34688436 49.96524689 -51 47 C-51.5 43.375 -51.5 43.375 -51 40 C-47.63241436 37.75494291 -45.59930725 37.50929338 -41.625 37 C-33.98827387 36.21731336 -33.98827387 36.21731336 -28.19140625 31.71484375 C-27.65386719 30.79832031 -27.11632812 29.88179688 -26.5625 28.9375 C-25.964375 27.94621094 -25.36625 26.95492188 -24.75 25.93359375 C-24.1725 24.96550781 -23.595 23.99742187 -23 23 C-7.91706692 -0.52780446 -7.91706692 -0.52780446 0 0 Z " fill="#F9FDFD" transform="translate(787,449)"/>
<path d="M0 0 C3.37462715 0.54723683 5.08235 1.0549 8 3 C7.40807024 7.3786585 5.79459765 10.45947602 3.5625 14.25 C3.21268066 14.85207275 2.86286133 15.45414551 2.50244141 16.07446289 C0.52673676 19.46342322 -1.49711149 22.82098051 -3.54296875 26.16796875 C-9.03589302 35.20847159 -13.41141493 44.02267932 -17 54 C-17.68946961 55.88434688 -18.37962229 57.76844392 -19.0703125 59.65234375 C-20.77459786 64.31267742 -22.46083332 68.97921115 -24.13378906 73.65087891 C-24.41963867 74.42608887 -24.70548828 75.20129883 -25 76 C-25.47904785 77.35230713 -25.47904785 77.35230713 -25.96777344 78.73193359 C-27 81 -27 81 -29.25 82.0625 C-33.07388381 81.97559355 -35.02369519 80.2841409 -38 78 C-37.36414343 71.04594956 -35.14285973 64.66034177 -32.9375 58.0625 C-32.5355542 56.85988525 -32.1336084 55.65727051 -31.71948242 54.41821289 C-28.54190958 45.1401496 -24.82812893 36.52386088 -20 28 C-19.48824219 27.07703125 -18.97648438 26.1540625 -18.44921875 25.203125 C-13.23096783 16.14502907 -6.93711568 7.80425514 0 0 Z " fill="#F7FDFD" transform="translate(559,501)"/>
<path d="M0 0 C-0.61144921 9.579371 -6.04242265 17.56818416 -13 24 C-13.66 24 -14.32 24 -15 24 C-15 25.32 -15 26.64 -15 28 C-14.34 28 -13.68 28 -13 28 C-13.57104793 32.00669694 -15.60417759 34.22097875 -18.1875 37.25 C-20.99001172 40.56608416 -23.65432818 43.86875182 -26.125 47.4375 C-28.91802022 51.2369437 -31.73013012 53.02929083 -36 55 C-36.66 55 -37.32 55 -38 55 C-40.25160164 50.49679672 -39.64437693 44.98514328 -38.12890625 40.31640625 C-36.86745632 37.46677019 -35.48615205 34.73939967 -34 32 C-33.39929688 30.89011719 -32.79859375 29.78023437 -32.1796875 28.63671875 C-28.73543559 22.50479747 -28.73543559 22.50479747 -27 20 C-26.34 20 -25.68 20 -25 20 C-24.75378906 19.44054687 -24.50757813 18.88109375 -24.25390625 18.3046875 C-19.71293018 9.9583452 -10.19454423 -0.67725993 0 0 Z " fill="#57C1B7" transform="translate(612,508)"/>
<path d="M0 0 C2.24993359 -0.02707139 4.49996095 -0.04642829 6.75 -0.0625 C8.00296875 -0.07410156 9.2559375 -0.08570313 10.546875 -0.09765625 C13.32863714 -0.01898651 15.3678174 0.27135941 18 1 C18.08760181 5.18736668 18.14059435 9.37449531 18.1875 13.5625 C18.21263672 14.74392578 18.23777344 15.92535156 18.26367188 17.14257812 C18.35965711 28.56482138 18.35965711 28.56482138 15 34 C11.37986645 37.13744908 7.3373362 38.80187612 2.625 39.5 C0 39 0 39 -1.875 37.75 C-3 36 -3 36 -3 32 C-2.15695312 31.93941406 -1.31390625 31.87882813 -0.4453125 31.81640625 C0.65039062 31.73261719 1.74609375 31.64882813 2.875 31.5625 C3.96554687 31.48128906 5.05609375 31.40007813 6.1796875 31.31640625 C8.94728971 31.16998297 8.94728971 31.16998297 11 30 C11.65772428 26.97065509 11.65772428 26.97065509 12 24 C11.319375 24.33 10.63875 24.66 9.9375 25 C6.28890902 26.24207353 3.83094301 26.54727757 0 26 C-2.92918002 23.88101871 -3.74360894 23.23632875 -5 20 C-6.32153392 7.98230088 -6.32153392 7.98230088 -3 3 C-2.34 3 -1.68 3 -1 3 C-0.67 2.01 -0.34 1.02 0 0 Z " fill="#ECF4F0" transform="translate(368,744)"/>
<path d="M0 0 C1.03350586 0.01450195 1.03350586 0.01450195 2.08789062 0.02929688 C7.14363525 0.14363525 7.14363525 0.14363525 8.3125 1.3125 C8.60326238 5.35336103 8.62659419 9.39809584 8.66259766 13.44848633 C8.67909268 14.80738529 8.70629787 16.16619981 8.74462891 17.5246582 C9.10198475 30.2574023 9.10198475 30.2574023 5.93359375 34.12109375 C1.96947793 37.43535452 -0.63219843 39.46037502 -5.875 39.6875 C-7.7621875 39.501875 -7.7621875 39.501875 -9.6875 39.3125 C-11.6875 36.3125 -11.6875 36.3125 -11.6875 32.3125 C-10.92824219 32.26351562 -10.16898438 32.21453125 -9.38671875 32.1640625 C-8.39285156 32.08929687 -7.39898438 32.01453125 -6.375 31.9375 C-5.38886719 31.86789062 -4.40273438 31.79828125 -3.38671875 31.7265625 C-0.47221567 31.47384528 -0.47221567 31.47384528 2.3125 29.3125 C3.03632467 27.25324861 3.03632467 27.25324861 3.3125 25.3125 C2.2915625 25.56 2.2915625 25.56 1.25 25.8125 C-2.20346758 26.40032427 -5.1903183 26.63042561 -8.6875 26.3125 C-11.68396025 23.96392305 -14.41733733 21.15451823 -14.98828125 17.26171875 C-15.02035147 11.07216702 -13.86145893 7.17983193 -10.05859375 2.1640625 C-6.80679174 -0.37523594 -3.94221161 -0.16879117 0 0 Z " fill="#E9F7F2" transform="translate(587.6875,743.6875)"/>
<path d="M0 0 C1.03333047 2.65021586 1.11100747 3.72421582 0.03125 6.40673828 C-0.4740625 7.28571777 -0.979375 8.16469727 -1.5 9.0703125 C-2.05816406 10.05 -2.61632812 11.0296875 -3.19140625 12.0390625 C-4.08666016 13.56660156 -4.08666016 13.56660156 -5 15.125 C-5.56589844 16.12015625 -6.13179687 17.1153125 -6.71484375 18.140625 C-19.174904 39.78326933 -19.174904 39.78326933 -27 45 C-29.6875 45.125 -29.6875 45.125 -32 45 C-34.35512874 41.32011134 -34.3544789 38.29861753 -34 34 C-31.55283502 29.29658362 -28.25535386 25.17244527 -25 21 C-24.32710937 20.11699219 -23.65421875 19.23398437 -22.9609375 18.32421875 C-16.55242526 10.56719717 -8.37438125 5.40481538 0 0 Z " fill="#4FC1BD" transform="translate(572,596)"/>
<path d="M0 0 C1.32 0.33 2.64 0.66 4 1 C4 5.29 4 9.58 4 14 C4.66 13.67 5.32 13.34 6 13 C10.06443736 12.73347952 12.84506093 12.65615062 16.7421875 13.81640625 C19.50783893 16.49114526 19.36493566 17.35798758 19.48828125 21.10546875 C19.4550367 23.13338658 19.39539629 25.16100447 19.3125 27.1875 C19.28994141 28.22326172 19.26738281 29.25902344 19.24414062 30.32617188 C19.18516846 32.88556404 19.10292567 35.44205951 19 38 C17.33388095 38.042721 15.66617115 38.04063832 14 38 C11.68917152 35.68917152 12.53803191 29.37191671 12.39453125 26.08203125 C12.57300905 22.22526907 12.57300905 22.22526907 11 19 C8.69 18.67 6.38 18.34 4 18 C4 24.27 4 30.54 4 37 C2.35 37 0.7 37 -1 37 C-2.96741628 35.03258372 -2.16388207 31.22432269 -2.16796875 28.53515625 C-2.17129715 27.78664902 -2.17462555 27.03814178 -2.17805481 26.26695251 C-2.18312693 24.68066016 -2.18546305 23.0943571 -2.18530273 21.50805664 C-2.18748773 19.07615631 -2.20563581 16.64471051 -2.22460938 14.21289062 C-2.22754349 12.67448072 -2.22952817 11.13606866 -2.23046875 9.59765625 C-2.23765427 8.86740738 -2.24483978 8.13715851 -2.25224304 7.38478088 C-2.22882307 2.22882307 -2.22882307 2.22882307 0 0 Z " fill="#E4F4EF" transform="translate(406,731)"/>
<path d="M0 0 C2.2421875 -0.3984375 2.2421875 -0.3984375 4.875 -0.375 C5.73867188 -0.38273438 6.60234375 -0.39046875 7.4921875 -0.3984375 C11.16662313 0.18535134 13.05646915 1.71608144 15.234375 4.6796875 C16.3729587 8.1302932 16.28855264 11.53317892 16.25 15.125 C16.25773438 15.85332031 16.26546875 16.58164062 16.2734375 17.33203125 C16.25342069 22.74657931 16.25342069 22.74657931 14 25 C11.47207337 25.22555081 9.08944424 25.32438591 6.5625 25.3125 C5.5405957 25.33666992 5.5405957 25.33666992 4.49804688 25.36132812 C1.62463783 25.36414243 -0.48808038 25.32520745 -2.94921875 23.76171875 C-4.27407007 21.54049963 -4.40078597 20.0785969 -4.375 17.5 C-4.38273438 16.7265625 -4.39046875 15.953125 -4.3984375 15.15625 C-3.89786017 12.44724328 -3.23350092 11.59254039 -1 10 C1.26171875 9.48828125 1.26171875 9.48828125 3.6875 9.3125 C4.89986328 9.21388672 4.89986328 9.21388672 6.13671875 9.11328125 C6.75160156 9.07589844 7.36648438 9.03851562 8 9 C8 7.68 8 6.36 8 5 C5.03 5.66 2.06 6.32 -1 7 C-1.33 5.68 -1.66 4.36 -2 3 C-1.34 2.01 -0.68 1.02 0 0 Z " fill="#EEF8F6" transform="translate(672,744)"/>
<path d="M0 0 C0 0.66 0 1.32 0 2 C0.639375 2.309375 1.27875 2.61875 1.9375 2.9375 C4 4 4 4 5 5 C5.67327457 12.06435853 2.2106066 15.70591094 -2 21 C-2.45117188 21.57878906 -2.90234375 22.15757812 -3.3671875 22.75390625 C-5.46980271 25.16572958 -6.83807517 25.96963909 -10 26.5625 C-13.80461201 25.84913525 -15.49173814 24.96430947 -18 22 C-18.12515655 15.36670282 -15.32950345 10.43227566 -10.875 5.78125 C-4.68661972 0 -4.68661972 0 0 0 Z " fill="#F7FCFC" transform="translate(587,450)"/>
<path d="M0 0 C3.83625 -0.1546875 3.83625 -0.1546875 7.75 -0.3125 C8.54889648 -0.35802002 9.34779297 -0.40354004 10.17089844 -0.45043945 C12.109375 -0.48828125 12.109375 -0.48828125 16 0 C18.60949545 2.54716673 20.88694187 5.12834096 21.11352539 8.87939453 C21.10828857 9.62302246 21.10305176 10.36665039 21.09765625 11.1328125 C21.09443359 11.93847656 21.09121094 12.74414062 21.08789062 13.57421875 C21.07951172 14.41597656 21.07113281 15.25773438 21.0625 16.125 C21.05798828 16.97449219 21.05347656 17.82398438 21.04882812 18.69921875 C21.03702874 20.79950909 21.01909306 22.8997633 21 25 C16.125 24.125 16.125 24.125 15 23 C14.72962894 19.57529995 14.55370342 16.15760696 14.39453125 12.7265625 C14.53841351 9.05812952 14.53841351 9.05812952 13 6 C10.69 5.67 8.38 5.34 6 5 C6 11.27 6 17.54 6 24 C4.02 24 2.04 24 0 24 C0 16.08 0 8.16 0 0 Z " fill="#EEF5F2" transform="translate(535,744)"/>
<path d="M0 0 C2.01822917 0.06510417 4.03645833 0.13020833 6.0546875 0.1953125 C5.7246875 1.8453125 5.3946875 3.4953125 5.0546875 5.1953125 C3.9409375 5.4428125 2.8271875 5.6903125 1.6796875 5.9453125 C-2.00068738 6.77605708 -2.00068738 6.77605708 -3.171875 9.2734375 C-3.42710937 9.90765625 -3.68234375 10.541875 -3.9453125 11.1953125 C-1.98629796 11.08148597 -0.0280787 10.95390125 1.9296875 10.8203125 C3.56550781 10.71589844 3.56550781 10.71589844 5.234375 10.609375 C8.18515224 10.46277759 8.18515224 10.46277759 10.0546875 8.1953125 C10.0546875 10.8353125 10.0546875 13.4753125 10.0546875 16.1953125 C5.4346875 16.1953125 0.8146875 16.1953125 -3.9453125 16.1953125 C-3.6153125 17.1853125 -3.2853125 18.1753125 -2.9453125 19.1953125 C1.3446875 19.1953125 5.6346875 19.1953125 10.0546875 19.1953125 C10.0546875 20.8453125 10.0546875 22.4953125 10.0546875 24.1953125 C5.44504428 25.73186024 0.86864956 25.72939525 -3.9453125 25.1953125 C-7.11151345 23.00912613 -7.7349512 21.82639639 -8.9453125 18.1953125 C-9.99113422 8.54387208 -9.99113422 8.54387208 -6.5703125 4.1328125 C-5.7040625 3.4934375 -4.8378125 2.8540625 -3.9453125 2.1953125 C-1.9453125 0.1953125 -1.9453125 0.1953125 0 0 Z " fill="#EDF9F6" transform="translate(480.9453125,743.8046875)"/>
<path d="M0 0 C1.65 0.33 3.3 0.66 5 1 C5 10.57 5 20.14 5 30 C8.96 30 12.92 30 17 30 C17.33 31.32 17.66 32.64 18 34 C14.82606311 35.58696844 11.41825795 35.1431447 7.9375 35.125 C7.19177734 35.12886719 6.44605469 35.13273438 5.67773438 35.13671875 C0.12663501 35.12663501 0.12663501 35.12663501 -1 34 C-1.10082764 31.56339554 -1.13972603 29.15575299 -1.1328125 26.71875 C-1.13376923 25.99006714 -1.13472595 25.26138428 -1.13571167 24.51062012 C-1.13639335 22.9672029 -1.13453988 21.42378283 -1.13037109 19.88037109 C-1.12502262 17.510026 -1.13031642 15.13987041 -1.13671875 12.76953125 C-1.13605797 11.27343708 -1.1347768 9.77734303 -1.1328125 8.28125 C-1.13483673 7.56771362 -1.13686096 6.85417725 -1.13894653 6.11901855 C-1.11495191 1.11495191 -1.11495191 1.11495191 0 0 Z " fill="#FAF5F3" transform="translate(305,734)"/>
<path d="M0 0 C0.38218767 1.65614657 0.71395102 3.32457024 1 5 C0.67 5.33 0.34 5.66 0 6 C-1.52519276 5.91062197 -3.04681929 5.75462854 -4.5625 5.5625 C-5.38878906 5.46066406 -6.21507812 5.35882812 -7.06640625 5.25390625 C-7.70449219 5.17011719 -8.34257813 5.08632813 -9 5 C-5.86077669 9.52048157 -2.78504172 11.51545911 2 14 C2.23397834 16.85453575 2.42468097 19.203724 2 22 C-0.79102747 24.79102747 -3.31923395 25.17908754 -7.125 25.3125 C-11 25 -11 25 -14 23 C-13.67 21.35 -13.34 19.7 -13 18 C-8.545 18.99 -8.545 18.99 -4 20 C-4 19.01 -4 18.02 -4 17 C-4.721875 16.773125 -5.44375 16.54625 -6.1875 16.3125 C-9.66170188 14.69120579 -11.61301991 13.00077497 -14 10 C-14.6587245 6.41361103 -14.44828677 4.77431352 -12.625 1.625 C-8.5952124 -0.86963042 -4.61933486 -0.31735888 0 0 Z " fill="#E8F3EE" transform="translate(719,744)"/>
<path d="M0 0 C2.05078125 0.03255208 4.1015625 0.06510417 6.15234375 0.09765625 C5.90234375 1.97265625 5.90234375 1.97265625 5.15234375 4.09765625 C3.08984375 5.34765625 3.08984375 5.34765625 1.15234375 6.09765625 C1.15234375 7.74765625 1.15234375 9.39765625 1.15234375 11.09765625 C2.14234375 11.42765625 3.13234375 11.75765625 4.15234375 12.09765625 C4.15234375 13.08765625 4.15234375 14.07765625 4.15234375 15.09765625 C3.16234375 15.59265625 3.16234375 15.59265625 2.15234375 16.09765625 C1.26594986 18.75683791 0.9724535 20.57830266 0.8359375 23.328125 C0.79404297 24.13056641 0.75214844 24.93300781 0.70898438 25.75976562 C0.66966797 26.59314453 0.63035156 27.42652344 0.58984375 28.28515625 C0.54666016 29.13013672 0.50347656 29.97511719 0.45898438 30.84570312 C0.35302857 32.92950058 0.25219355 35.01355728 0.15234375 37.09765625 C-4.72265625 36.22265625 -4.72265625 36.22265625 -5.84765625 35.09765625 C-6.06048316 32.17719813 -6.22466497 29.27211548 -6.34765625 26.34765625 C-6.56429525 20.20291369 -6.56429525 20.20291369 -7.50390625 14.14453125 C-7.61734375 13.4690625 -7.73078125 12.79359375 -7.84765625 12.09765625 C-7.18765625 11.43765625 -6.52765625 10.77765625 -5.84765625 10.09765625 C-5.27205786 8.59669393 -4.75635208 7.07209343 -4.28515625 5.53515625 C-2.61863974 0.13840591 -2.61863974 0.13840591 0 0 Z " fill="#EDF5F1" transform="translate(647.84765625,731.90234375)"/>
<path d="M0 0 C2.0625 0.4375 2.0625 0.4375 4 1 C4 2.32 4 3.64 4 5 C5.98 5.66 7.96 6.32 10 7 C9.67 8.65 9.34 10.3 9 12 C7.68 12.33 6.36 12.66 5 13 C5.06005591 15.10495964 5.14885359 17.20911435 5.25 19.3125 C5.29640625 20.48425781 5.3428125 21.65601563 5.390625 22.86328125 C5.70054149 26.09478682 5.70054149 26.09478682 8.046875 27.91796875 C8.69140625 28.27503906 9.3359375 28.63210938 10 29 C9.67 29.99 9.34 30.98 9 32 C5.6875 32.3125 5.6875 32.3125 2 32 C-1.93357119 27.19833033 -1.44310396 22.11765214 -1.59375 16.1796875 C-2.02963849 12.7680218 -2.46603966 12.11049527 -5 10 C-4.6875 7.8125 -4.6875 7.8125 -4 6 C-3.01 6 -2.02 6 -1 6 C-1.020625 5.195625 -1.04125 4.39125 -1.0625 3.5625 C-1 1 -1 1 0 0 Z " fill="#ECF2E8" transform="translate(741,737)"/>
<path d="M0 0 C1.32 0 2.64 0 4 0 C4.66 1.98 5.32 3.96 6 6 C7.65 6.33 9.3 6.66 11 7 C11 7.99 11 8.98 11 10 C9.02 10.99 7.04 11.98 5 13 C5 17.62 5 22.24 5 27 C6.32 27.33 7.64 27.66 9 28 C8.67 29.65 8.34 31.3 8 33 C2.25 32.125 2.25 32.125 0 31 C-0.01458252 30.43490723 -0.02916504 29.86981445 -0.04418945 29.28759766 C-0.11856058 26.73269981 -0.21525242 24.17912502 -0.3125 21.625 C-0.33505859 20.73554687 -0.35761719 19.84609375 -0.38085938 18.9296875 C-0.41630859 18.07890625 -0.45175781 17.228125 -0.48828125 16.3515625 C-0.51446533 15.56604004 -0.54064941 14.78051758 -0.56762695 13.97119141 C-0.84889597 11.59959844 -0.84889597 11.59959844 -4 10 C-3.67 9.01 -3.34 8.02 -3 7 C-2.34 7 -1.68 7 -1 7 C-1.020625 6.030625 -1.04125 5.06125 -1.0625 4.0625 C-1 1 -1 1 0 0 Z " fill="#E9F4F1" transform="translate(446,737)"/>
<path d="M0 0 C0 0.66 0 1.32 0 2 C4.455 2.99 4.455 2.99 9 4 C8.25 10.625 8.25 10.625 6 14 C8.31 14 10.62 14 13 14 C13 14.33 13 14.66 13 15 C10.56183415 15.0809723 8.12635616 15.14046972 5.6875 15.1875 C4.65206055 15.22520508 4.65206055 15.22520508 3.59570312 15.26367188 C-1.4640079 15.33700102 -1.4640079 15.33700102 -3.95703125 13.76953125 C-5.26873738 11.54405231 -5.40076082 10.07608192 -5.375 7.5 C-5.38273438 6.7265625 -5.39046875 5.953125 -5.3984375 5.15625 C-4.80541406 1.94694669 -3.38279929 0 0 0 Z " fill="#E8F5EE" transform="translate(673,754)"/>
<path d="M0 0 C2 2 2 2 2.265625 4.27734375 C2.26046875 5.15519531 2.2553125 6.03304687 2.25 6.9375 C2.25515625 7.81277344 2.2603125 8.68804688 2.265625 9.58984375 C2 12 2 12 0 15 C-1.875 15.3984375 -1.875 15.3984375 -4 15.375 C-4.70125 15.38273438 -5.4025 15.39046875 -6.125 15.3984375 C-8 15 -8 15 -10 12 C-10.32052751 7.96135341 -10.51709512 5.2166944 -8.9375 1.5 C-5.98282668 -0.78748902 -3.61341086 -0.39419028 0 0 Z " fill="#50C2C2" transform="translate(378,749)"/>
<path d="M0 0 C0.99 0.33 1.98 0.66 3 1 C2.51273438 1.36996094 2.02546875 1.73992188 1.5234375 2.12109375 C-0.62465325 4.77040567 -0.39955861 6.6938774 -0.375 10.0625 C-0.38273438 11.12597656 -0.39046875 12.18945312 -0.3984375 13.28515625 C-0.26695312 14.18105469 -0.13546875 15.07695313 0 16 C3.44450737 18.29633824 5.93812283 18.54016485 10 19 C10.33 20.32 10.66 21.64 11 23 C7.35042135 25.33573034 4.26089509 25.45652447 0 25 C-2.99646025 22.65142305 -5.72983733 19.84201823 -6.30078125 15.94921875 C-6.33181658 9.95940054 -5.45781908 5.73091009 -1.3125 1.125 C-0.879375 0.75375 -0.44625 0.3825 0 0 Z " fill="#EFF7F2" transform="translate(579,745)"/>
<path d="M0 0 C2 2 2 2 2.23046875 4.78515625 C2.20919922 6.40744141 2.20919922 6.40744141 2.1875 8.0625 C2.17783203 9.68865234 2.17783203 9.68865234 2.16796875 11.34765625 C2 14 2 14 1 15 C-2.48570299 15.26307192 -5.20744517 15.29720806 -8.5 14.0625 C-10.70006275 11.03741372 -9.99271654 8.64356451 -9.45703125 5.05859375 C-9 3 -9 3 -8 1 C-5.03104944 0.01034981 -3.0913386 -0.23779528 0 0 Z " fill="#49BDC0" transform="translate(588,749)"/>
<path d="M0 0 C1.65 0.33 3.3 0.66 5 1 C5 8.92 5 16.84 5 25 C0 24 0 24 -1 23 C-1.0991657 21.37742456 -1.13079777 19.75060169 -1.1328125 18.125 C-1.13410156 17.14015625 -1.13539063 16.1553125 -1.13671875 15.140625 C-1.13285156 14.10421875 -1.12898438 13.0678125 -1.125 12 C-1.13080078 10.44539062 -1.13080078 10.44539062 -1.13671875 8.859375 C-1.13542969 7.87453125 -1.13414062 6.8896875 -1.1328125 5.875 C-1.13168457 4.96492187 -1.13055664 4.05484375 -1.12939453 3.1171875 C-1 1 -1 1 0 0 Z " fill="#F5F9F7" transform="translate(511,744)"/>
<path d="M0 0 C1.65 0 3.3 0 5 0 C5 7.92 5 15.84 5 24 C3.35 23.67 1.7 23.34 0 23 C0 15.41 0 7.82 0 0 Z " fill="#EFF4F1" transform="translate(339,744)"/>
<path d="M0 0 C1.65 0.33 3.3 0.66 5 1 C5 10.57 5 20.14 5 30 C4.67 30 4.34 30 4 30 C3.97494385 29.36908447 3.9498877 28.73816895 3.92407227 28.08813477 C3.80845863 25.24603175 3.68557684 22.40428917 3.5625 19.5625 C3.52318359 18.56927734 3.48386719 17.57605469 3.44335938 16.55273438 C3.40146484 15.60849609 3.35957031 14.66425781 3.31640625 13.69140625 C3.27974854 12.81685791 3.24309082 11.94230957 3.20532227 11.04125977 C3.21818934 9.0072598 3.21818934 9.0072598 2 8 C2.01047363 8.57443848 2.02094727 9.14887695 2.03173828 9.74072266 C2.07357099 12.36876977 2.099412 14.99674654 2.125 17.625 C2.15013672 18.98044922 2.15013672 18.98044922 2.17578125 20.36328125 C2.21201643 25.32750152 1.96444146 29.34411907 0 34 C-0.33 34 -0.66 34 -1 34 C-1.02465288 29.31860746 -1.04283739 24.63725241 -1.05493164 19.95581055 C-1.05997157 18.36205386 -1.0668035 16.76830181 -1.07543945 15.17456055 C-1.08751999 12.88849747 -1.09323155 10.60249533 -1.09765625 8.31640625 C-1.10281754 7.59973282 -1.10797882 6.88305939 -1.11329651 6.14466858 C-1.11349263 4.42936328 -1.06192007 2.71418734 -1 1 C-0.67 0.67 -0.34 0.34 0 0 Z " fill="#DEEBE6" transform="translate(305,734)"/>
<path d="M0 0 C3 1 3 1 4.1796875 2.703125 C5.1819244 5.50938831 5.19578721 7.77693736 5.125 10.75 C5.10695313 11.73484375 5.08890625 12.7196875 5.0703125 13.734375 C5.03550781 14.85585938 5.03550781 14.85585938 5 16 C4.34 15.67 3.68 15.34 3 15 C3 13.02 3 11.04 3 9 C2.67 9.33 2.34 9.66 2 10 C-0.01964199 10.07244053 -2.04167124 10.08377188 -4.0625 10.0625 C-5.16722656 10.05347656 -6.27195312 10.04445313 -7.41015625 10.03515625 C-8.69212891 10.01775391 -8.69212891 10.01775391 -10 10 C-9.6875 8.125 -9.6875 8.125 -9 6 C-5.77208445 3.8480563 -4.71599191 3.79913557 -1 4 C-0.67 2.68 -0.34 1.36 0 0 Z " fill="#E9F7F3" transform="translate(487,745)"/>
<path d="M0 0 C0.66 0.33 1.32 0.66 2 1 C0.515 3.475 0.515 3.475 -1 6 C-0.34 6.33 0.32 6.66 1 7 C1 11 1 11 -0.8984375 13.140625 C-1.71570313 13.83671875 -2.53296875 14.5328125 -3.375 15.25 C-4.18710937 15.95640625 -4.99921875 16.6628125 -5.8359375 17.390625 C-8 19 -8 19 -10 19 C-8.62394084 14.23448987 -6.53221934 10.2751447 -3.875 6.125 C-3.50246094 5.53203125 -3.12992188 4.9390625 -2.74609375 4.328125 C-1.83635 2.8818657 -0.91896202 1.44041954 0 0 Z " fill="#5DB8B2" transform="translate(611,546)"/>
<path d="M0 0 C0.33 0.66 0.66 1.32 1 2 C0.67 2.66 0.34 3.32 0 4 C1.65 4 3.3 4 5 4 C3.88318655 7.35044034 2.9563104 8.14916343 0.3125 10.375 C-0.76064453 11.28572266 -0.76064453 11.28572266 -1.85546875 12.21484375 C-2.91701172 13.09849609 -2.91701172 13.09849609 -4 14 C-4.92232422 14.77537109 -4.92232422 14.77537109 -5.86328125 15.56640625 C-7.23698821 16.7171727 -8.61768397 17.85958928 -10 19 C-8.65692112 14.69310762 -7.01109126 10.72476571 -5 6.6875 C-4.484375 5.63949219 -3.96875 4.59148437 -3.4375 3.51171875 C-2 1 -2 1 0 0 Z " fill="#59BAB2" transform="translate(681,504)"/>
<path d="M0 0 C2.01822917 0.06510417 4.03645833 0.13020833 6.0546875 0.1953125 C5.8046875 2.0703125 5.8046875 2.0703125 5.0546875 4.1953125 C2.9921875 5.4453125 2.9921875 5.4453125 1.0546875 6.1953125 C1.0546875 8.1753125 1.0546875 10.1553125 1.0546875 12.1953125 C-0.9453125 12.1953125 -0.9453125 12.1953125 -3.1328125 10.5703125 C-4.9453125 8.1953125 -4.9453125 8.1953125 -4.8203125 5.0703125 C-3.88972033 2.0126525 -3.37050463 0.33840408 0 0 Z " fill="#E9F3ED" transform="translate(647.9453125,731.8046875)"/>
<path d="M0 0 C0.04254356 1.99954746 0.04080783 4.00041636 0 6 C-1.66561399 7.66561399 -3.65962705 7.17115945 -5.9375 7.1875 C-6.83339844 7.20167969 -7.72929687 7.21585938 -8.65234375 7.23046875 C-11 7 -11 7 -13 5 C-12 3 -12 3 -10.0390625 2.1484375 C-8.84410156 1.76558594 -8.84410156 1.76558594 -7.625 1.375 C-6.83351563 1.11460937 -6.04203125 0.85421875 -5.2265625 0.5859375 C-3 0 -3 0 0 0 Z " fill="#2BB2B0" transform="translate(380,768)"/>
<path d="M0 0 C-0.45699278 5.02692063 -2.99241748 8.14896261 -6 12 C-7.98 11.34 -9.96 10.68 -12 10 C-10.58426179 6.60812721 -8.95769034 4.90302459 -6 2.75 C-5.29875 2.22921875 -4.5975 1.7084375 -3.875 1.171875 C-2 0 -2 0 0 0 Z " fill="#4FBCB7" transform="translate(589,565)"/>
<path d="M0 0 C0.33 0 0.66 0 1 0 C0.979375 0.804375 0.95875 1.60875 0.9375 2.4375 C0.70366379 4.93354885 0.70366379 4.93354885 2 6 C2.35179197 8.3306218 2.68330179 10.66435067 3 13 C3.30903983 14.33917261 3.62942911 15.67653254 4 17 C2.68 17 1.36 17 0 17 C-2.69734626 12.95398061 -2.43218852 9.74576236 -2 5 C-1 1.9375 -1 1.9375 0 0 Z " fill="#E5F1EF" transform="translate(575,749)"/>
<path d="M0 0 C1.65 0.33 3.3 0.66 5 1 C5 8.92 5 16.84 5 25 C4.01 24.67 3.02 24.34 2 24 C2.66 24 3.32 24 4 24 C4 16.74 4 9.48 4 2 C3.01 2.33 2.02 2.66 1 3 C0.67 9.6 0.34 16.2 0 23 C-0.33 23 -0.66 23 -1 23 C-1.02887512 19.35418313 -1.04675585 15.70839537 -1.0625 12.0625 C-1.07087891 11.02158203 -1.07925781 9.98066406 -1.08789062 8.90820312 C-1.09272461 7.42416992 -1.09272461 7.42416992 -1.09765625 5.91015625 C-1.10289307 4.99371338 -1.10812988 4.07727051 -1.11352539 3.13305664 C-1 1 -1 1 0 0 Z " fill="#BFE7E1" transform="translate(511,744)"/>
<path d="M0 0 C1.98 0 3.96 0 6 0 C4.55797524 4.15151338 2.4989562 7.29978445 -0.125 10.8125 C-1.21167969 12.27623047 -1.21167969 12.27623047 -2.3203125 13.76953125 C-2.87460937 14.50558594 -3.42890625 15.24164063 -4 16 C-4.33 15.34 -4.66 14.68 -5 14 C-4.30895557 12.02558735 -3.6091615 10.05307569 -2.8359375 8.109375 C-1.77876676 5.4417479 -0.88669408 2.72828948 0 0 Z " fill="#50BBB4" transform="translate(525,427)"/>
<path d="M0 0 C4.29 0 8.58 0 13 0 C12.67 1.32 12.34 2.64 12 4 C8.37 4 4.74 4 1 4 C0.67 2.68 0.34 1.36 0 0 Z " fill="#48A0B5" transform="translate(477,760)"/>
<path d="M0 0 C2 2 2 2 2 5 C-1.63 5.33 -5.26 5.66 -9 6 C-7.6185219 0.47408759 -5.43452271 -0.55738694 0 0 Z " fill="#4AA8B7" transform="translate(486,749)"/>
<path d="M0 0 C2.3828125 -0.29296875 2.3828125 -0.29296875 5.125 -0.1875 C6.03507813 -0.16042969 6.94515625 -0.13335938 7.8828125 -0.10546875 C8.58148437 -0.07066406 9.28015625 -0.03585937 10 0 C10 0.33 10 0.66 10 1 C8.35 1 6.7 1 5 1 C5 1.99 5 2.98 5 4 C5.99 4.33 6.98 4.66 8 5 C5.03 5.66 2.06 6.32 -1 7 C-1.33 5.68 -1.66 4.36 -2 3 C-1.34 2.01 -0.68 1.02 0 0 Z " fill="#DAF3EC" transform="translate(672,744)"/>
<path d="M0 0 C0 1.65 0 3.3 0 5 C-2.64 5.33 -5.28 5.66 -8 6 C-8.33 4.68 -8.66 3.36 -9 2 C-5.62902617 0.50178941 -3.79557881 0 0 0 Z " fill="#4F979F" transform="translate(682,758)"/>
<path d="M0 0 C2.0625 0.4375 2.0625 0.4375 4 1 C3.5155542 1.52110352 3.0311084 2.04220703 2.53198242 2.57910156 C0.52312481 5.75357679 0.57033841 7.99256843 0.48828125 11.734375 C0.45283203 13.02988281 0.41738281 14.32539062 0.38085938 15.66015625 C0.35776133 17.02343226 0.33497886 18.38671364 0.3125 19.75 C0.27931352 21.12893862 0.24482262 22.5078465 0.20898438 23.88671875 C0.12647709 27.25773059 0.05733229 30.62848128 0 34 C-0.33 34 -0.66 34 -1 34 C-1.02465288 29.31860746 -1.04283739 24.63725241 -1.05493164 19.95581055 C-1.05997157 18.36205386 -1.0668035 16.76830181 -1.07543945 15.17456055 C-1.08751999 12.88849747 -1.09323155 10.60249533 -1.09765625 8.31640625 C-1.10281754 7.59973282 -1.10797882 6.88305939 -1.11329651 6.14466858 C-1.11349263 4.42936328 -1.06192007 2.71418734 -1 1 C-0.67 0.67 -0.34 0.34 0 0 Z " fill="#C0E4DB" transform="translate(305,734)"/>
<path d="M0 0 C-1.18112752 5.47613669 -2.52664097 8.3094788 -7 12 C-7.66 12 -8.32 12 -9 12 C-8.690625 11.2575 -8.38125 10.515 -8.0625 9.75 C-6.95577631 7.14840586 -6.95577631 7.14840586 -6.625 4.875 C-5.58551786 1.75655359 -3.28579934 0 0 0 Z " fill="#64C4B6" transform="translate(689,521)"/>
<path d="M0 0 C0 0.66 0 1.32 0 2 C1.65 2.33 3.3 2.66 5 3 C5 3.66 5 4.32 5 5 C-0.625 7.125 -0.625 7.125 -4 6 C-4 7.98 -4 9.96 -4 12 C-4.33 12 -4.66 12 -5 12 C-5.08131463 10.56344146 -5.13933559 9.1255517 -5.1875 7.6875 C-5.22230469 6.88699219 -5.25710938 6.08648438 -5.29296875 5.26171875 C-5 3 -5 3 -3.61328125 1.20703125 C-2 0 -2 0 0 0 Z " fill="#DAF0E9" transform="translate(673,754)"/>
<path d="M0 0 C1.65 0.33 3.3 0.66 5 1 C3.59155282 4.21524305 1.89655214 6.32183868 -0.625 8.75 C-1.57246094 9.67039062 -1.57246094 9.67039062 -2.5390625 10.609375 C-3.02117188 11.06828125 -3.50328125 11.5271875 -4 12 C-4.33 11.34 -4.66 10.68 -5 10 C-4.00390625 7.6171875 -4.00390625 7.6171875 -2.5625 4.875 C-1.85287109 3.50988281 -1.85287109 3.50988281 -1.12890625 2.1171875 C-0.75636719 1.41851563 -0.38382813 0.71984375 0 0 Z " fill="#7BC6BD" transform="translate(676,511)"/>
<path d="M0 0 C3.3 0 6.6 0 10 0 C9.01 0.495 9.01 0.495 8 1 C8 1.66 8 2.32 8 3 C4.78548731 4.60725635 1.56387464 4.05748185 -2 4 C-1.34 2.68 -0.68 1.36 0 0 Z " fill="#31B1B4" transform="translate(578,771)"/>
<path d="M0 0 C9.24 0 18.48 0 28 0 C28 0.33 28 0.66 28 1 C27.03175293 1.03758423 27.03175293 1.03758423 26.04394531 1.07592773 C23.11244106 1.19214433 20.18123783 1.31475442 17.25 1.4375 C16.23421875 1.47681641 15.2184375 1.51613281 14.171875 1.55664062 C13.1921875 1.59853516 12.2125 1.64042969 11.203125 1.68359375 C9.85202637 1.73858032 9.85202637 1.73858032 8.47363281 1.79467773 C5.34784399 2.05413178 2.80543082 2.59728459 0 4 C0 2.68 0 1.36 0 0 Z " fill="#4EB4AC" transform="translate(326,378)"/>
<path d="M0 0 C2.0625 0.4375 2.0625 0.4375 4 1 C4 2.32 4 3.64 4 5 C3.05125 5.433125 2.1025 5.86625 1.125 6.3125 C-2.20041937 7.79302201 -2.20041937 7.79302201 -4 11 C-4.33 10.01 -4.66 9.02 -5 8 C-4.67 7.34 -4.34 6.68 -4 6 C-3.01 6 -2.02 6 -1 6 C-1.020625 5.195625 -1.04125 4.39125 -1.0625 3.5625 C-1 1 -1 1 0 0 Z " fill="#D1E5DB" transform="translate(741,737)"/>
<path d="M0 0 C0.99 0.33 1.98 0.66 3 1 C2.38379145 3.79387762 1.75750305 6.58480926 1.125 9.375 C0.95097656 10.1690625 0.77695312 10.963125 0.59765625 11.78125 C0.42363281 12.54179687 0.24960937 13.30234375 0.0703125 14.0859375 C-0.08679199 14.7876709 -0.24389648 15.4894043 -0.40576172 16.21240234 C-1 18 -1 18 -3 20 C-2.33644956 13.25390382 -1.28134207 6.65551466 0 0 Z " fill="#6CB3AB" transform="translate(432,415)"/>
<path d="M0 0 C0.99 0.33 1.98 0.66 3 1 C2.51917969 1.35707031 2.03835938 1.71414063 1.54296875 2.08203125 C-0.68424838 4.85054672 -0.51394011 7.18159023 -0.6875 10.6875 C-0.78611328 12.45673828 -0.78611328 12.45673828 -0.88671875 14.26171875 C-0.94279297 15.61716797 -0.94279297 15.61716797 -1 17 C-1.33 17 -1.66 17 -2 17 C-2 14.69 -2 12.38 -2 10 C-2.66 9.67 -3.32 9.34 -4 9 C-2.25 2.25 -2.25 2.25 0 0 Z " fill="#F7FCF7" transform="translate(579,745)"/>
<path d="M0 0 C3.96 0 7.92 0 12 0 C12.33 1.32 12.66 2.64 13 4 C11.02 4.33 9.04 4.66 7 5 C7 4.01 7 3.02 7 2 C4.69 1.67 2.38 1.34 0 1 C0 0.67 0 0.34 0 0 Z " fill="#C4E2DB" transform="translate(310,764)"/>
<path d="M0 0 C1.32 0 2.64 0 4 0 C4.125 2.375 4.125 2.375 4 5 C3.34 5.66 2.68 6.32 2 7 C1.01 7 0.02 7 -1 7 C-1.04254356 5.00045254 -1.04080783 2.99958364 -1 1 C-0.67 0.67 -0.34 0.34 0 0 Z " fill="#C8E0DB" transform="translate(340,733)"/>
<path d="M0 0 C5.75 1.875 5.75 1.875 8 3 C8 3.99 8 4.98 8 6 C2.25 5.125 2.25 5.125 0 4 C0 2.68 0 1.36 0 0 Z " fill="#33A1AC" transform="translate(707,758)"/>
<path d="M0 0 C6.75 0.75 6.75 0.75 9 3 C8.34 3.66 7.68 4.32 7 5 C4.5 4.875 4.5 4.875 2 4 C0.6875 1.9375 0.6875 1.9375 0 0 Z " fill="#4BA0AA" transform="translate(710,749)"/>
<path d="M0 0 C0.66 0.33 1.32 0.66 2 1 C-0.7479213 5.27454425 -3.69250989 9.14126153 -7 13 C-7.66 12.67 -8.32 12.34 -9 12 C-6.03 8.04 -3.06 4.08 0 0 Z " fill="#5FB4B6" transform="translate(774,551)"/>
<path d="M0 0 C0.33 0 0.66 0 1 0 C0.22095672 11.52164009 0.22095672 11.52164009 -2 17 C-2.33 17 -2.66 17 -3 17 C-3.34548714 10.66606918 -2.29342747 5.89738492 0 0 Z " fill="#46B7B4" transform="translate(170,544)"/>
<path d="M0 0 C1.2065625 0.0309375 1.2065625 0.0309375 2.4375 0.0625 C1.5625 4.9375 1.5625 4.9375 0.4375 6.0625 C-1.22867115 6.10313832 -2.89638095 6.105221 -4.5625 6.0625 C-3.9025 5.7325 -3.2425 5.4025 -2.5625 5.0625 C-2.8409375 4.1034375 -2.8409375 4.1034375 -3.125 3.125 C-3.3415625 2.1040625 -3.3415625 2.1040625 -3.5625 1.0625 C-2.5625 0.0625 -2.5625 0.0625 0 0 Z " fill="#46B5B8" transform="translate(588.5625,768.9375)"/>
<path d="M0 0 C1.32 0.33 2.64 0.66 4 1 C4 4.3 4 7.6 4 11 C3.01 11.495 3.01 11.495 2 12 C1.855625 10.7625 1.71125 9.525 1.5625 8.25 C1.21311498 5.43495501 0.79620634 2.7298503 0 0 Z " fill="#40ACB0" transform="translate(415,750)"/>
<path d="M0 0 C-0.4793247 4.31392226 -1.7457985 6.16569547 -5 9 C-5 7.68 -5 6.36 -5 5 C-5.66 4.67 -6.32 4.34 -7 4 C-2.25 0 -2.25 0 0 0 Z " fill="#73C4C3" transform="translate(589,565)"/>
<path d="M0 0 C0.33 0.99 0.66 1.98 1 3 C-2.3 6.3 -5.6 9.6 -9 13 C-9.66 12.67 -10.32 12.34 -11 12 C-10.54109375 11.55269531 -10.0821875 11.10539062 -9.609375 10.64453125 C-6.16447701 7.25029352 -2.92744915 3.86423288 0 0 Z " fill="#60B5B6" transform="translate(448,482)"/>
<path d="M0 0 C0.99 0 1.98 0 3 0 C3 1.98 3 3.96 3 6 C1.68 6.33 0.36 6.66 -1 7 C-1.04254356 5.00045254 -1.04080783 2.99958364 -1 1 C-0.67 0.67 -0.34 0.34 0 0 Z " fill="#AFD7D4" transform="translate(513,733)"/>
<path d="M0 0 C0.33 0.99 0.66 1.98 1 3 C-0.36328125 5.4453125 -0.36328125 5.4453125 -2.3125 8.125 C-3.26576172 9.45917969 -3.26576172 9.45917969 -4.23828125 10.8203125 C-6 13 -6 13 -8 14 C-6.6744419 10.37723685 -5.05653045 7.36494652 -2.875 4.1875 C-2.33617187 3.39730469 -1.79734375 2.60710937 -1.2421875 1.79296875 C-0.83226562 1.20128906 -0.42234375 0.60960937 0 0 Z " fill="#6BBCBB" transform="translate(500,497)"/>
<path d="M0 0 C0.67578125 1.70703125 0.67578125 1.70703125 1 4 C-0.14453125 6.32421875 -0.14453125 6.32421875 -1.8125 8.6875 C-2.62654297 9.86892578 -2.62654297 9.86892578 -3.45703125 11.07421875 C-5 13 -5 13 -7 14 C-5.23570801 9.02790438 -2.6060834 4.56561939 0 0 Z " fill="#68B7B1" transform="translate(465,456)"/>
<path d="M0 0 C3.3 0 6.6 0 10 0 C10.38218767 1.65614657 10.71395102 3.32457024 11 5 C10 6 10 6 7.4375 6.0625 C6.2309375 6.0315625 6.2309375 6.0315625 5 6 C5.99 5.34 6.98 4.68 8 4 C8 3.34 8 2.68 8 2 C5.36 1.67 2.72 1.34 0 1 C0 0.67 0 0.34 0 0 Z " fill="#DEF1E9" transform="translate(709,744)"/>
<path d="M0 0 C0.33 0 0.66 0 1 0 C0.67 2.31 0.34 4.62 0 7 C-0.99 7.33 -1.98 7.66 -3 8 C-3.33 8.66 -3.66 9.32 -4 10 C-4.8125 8.375 -4.8125 8.375 -5 6 C-3.54854104 3.70232365 -1.89569037 1.98596134 0 0 Z " fill="#45B6B8" transform="translate(527,551)"/>
<path d="M0 0 C1.65 0.33 3.3 0.66 5 1 C4.443125 1.185625 3.88625 1.37125 3.3125 1.5625 C-0.06754192 3.66360714 -1.85140381 6.70665994 -4 10 C-4.33 9.34 -4.66 8.68 -5 8 C-4.00390625 6.0546875 -4.00390625 6.0546875 -2.5625 3.875 C-2.08941406 3.15054688 -1.61632812 2.42609375 -1.12890625 1.6796875 C-0.75636719 1.12539063 -0.38382813 0.57109375 0 0 Z " fill="#DAF6F4" transform="translate(634,526)"/>
<path d="M0 0 C1 2 1 2 0.328125 4.05859375 C-0.02765625 4.84363281 -0.3834375 5.62867188 -0.75 6.4375 C-1.26820313 7.61119141 -1.26820313 7.61119141 -1.796875 8.80859375 C-2.97746344 10.95895127 -4.18105555 12.37444907 -6 14 C-5.41892368 10.2397015 -4.34800504 7.46964968 -2.4375 4.1875 C-1.98246094 3.39730469 -1.52742188 2.60710937 -1.05859375 1.79296875 C-0.53458984 0.90544922 -0.53458984 0.90544922 0 0 Z " fill="#62B1B0" transform="translate(427,438)"/>
<path d="M0 0 C3.375 -0.1875 3.375 -0.1875 7 0 C7.66 0.99 8.32 1.98 9 3 C5.99727245 3.96516243 3.95784231 4.22393475 1 3 C0.67 2.01 0.34 1.02 0 0 Z " fill="#EEF4EF" transform="translate(310,765)"/>
<path d="M0 0 C3.96 0 7.92 0 12 0 C12 0.33 12 0.66 12 1 C11.030625 1.12375 10.06125 1.2475 9.0625 1.375 C7.5465625 1.684375 7.5465625 1.684375 6 2 C5.67 2.66 5.34 3.32 5 4 C5.66 4.33 6.32 4.66 7 5 C5.68 5 4.36 5 3 5 C3 4.34 3 3.68 3 3 C2.01 2.01 1.02 1.02 0 0 Z " fill="#C6EBE1" transform="translate(539,744)"/>
<path d="M0 0 C0 3 0 3 -1.96875 5.04296875 C-2.8040625 5.75066406 -3.639375 6.45835937 -4.5 7.1875 C-5.3353125 7.90292969 -6.170625 8.61835937 -7.03125 9.35546875 C-7.6809375 9.89816406 -8.330625 10.44085937 -9 11 C-9 8 -9 8 -7.03125 5.95703125 C-6.1959375 5.24933594 -5.360625 4.54164063 -4.5 3.8125 C-3.6646875 3.09707031 -2.829375 2.38164063 -1.96875 1.64453125 C-1.3190625 1.10183594 -0.669375 0.55914063 0 0 Z " fill="#60B0AE" transform="translate(702,565)"/>
<path d="M0 0 C1.53166168 4.08443115 0.63081652 7.79455657 0 12 C1.98 12.495 1.98 12.495 4 13 C2.02 13.99 2.02 13.99 0 15 C-1.23689062 12.52621876 -1.13310087 10.82084683 -1.125 8.0625 C-1.12757813 7.18722656 -1.13015625 6.31195312 -1.1328125 5.41015625 C-1 3 -1 3 0 0 Z " fill="#85C0BE" transform="translate(574,548)"/>
<path d="M0 0 C0.66 0.66 1.32 1.32 2 2 C0.8803014 3.00593243 -0.2459412 4.0045849 -1.375 5 C-2.00148438 5.556875 -2.62796875 6.11375 -3.2734375 6.6875 C-5 8 -5 8 -7 8 C-6.34 6.02 -5.68 4.04 -5 2 C-4.67 2.66 -4.34 3.32 -4 4 C-3.34 4 -2.68 4 -2 4 C-2 3.34 -2 2.68 -2 2 C-1.34 2 -0.68 2 0 2 C0 1.34 0 0.68 0 0 Z " fill="#7AC0BC" transform="translate(608,557)"/>
<path d="M0 0 C0.66 0.99 1.32 1.98 2 3 C-0.31 5.31 -2.62 7.62 -5 10 C-5 6.60406522 -4.47834052 5.93380119 -2.5 3.3125 C-2.0359375 2.68988281 -1.571875 2.06726563 -1.09375 1.42578125 C-0.7328125 0.95527344 -0.371875 0.48476563 0 0 Z " fill="#5EBAB4" transform="translate(707,517)"/>
<path d="M0 0 C0 3 0 3 -1.3125 4.60546875 C-1.869375 5.12753906 -2.42625 5.64960938 -3 6.1875 C-3.556875 6.71730469 -4.11375 7.24710937 -4.6875 7.79296875 C-5.120625 8.19128906 -5.55375 8.58960938 -6 9 C-6.99 8.67 -7.98 8.34 -9 8 C-6.03 5.36 -3.06 2.72 0 0 Z " fill="#62B9B8" transform="translate(436,495)"/>
<path d="M0 0 C0.33 0 0.66 0 1 0 C1.08167446 1.41569064 1.13949698 2.83276805 1.1875 4.25 C1.22230469 5.03890625 1.25710938 5.8278125 1.29296875 6.640625 C0.93578688 9.51712968 -0.11751718 10.84576769 -2 13 C-1.85851011 11.3954444 -1.71164314 9.79136233 -1.5625 8.1875 C-1.48128906 7.29417969 -1.40007812 6.40085937 -1.31640625 5.48046875 C-1 3 -1 3 0 0 Z " fill="#4CB9B1" transform="translate(277,470)"/>
<path d="M0 0 C0 1.98 0 3.96 0 6 C-0.99 6.495 -0.99 6.495 -2 7 C-2.99 5.02 -3.98 3.04 -5 1 C-3 0 -3 0 0 0 Z " fill="#5FC2C2" transform="translate(380,768)"/>
<path d="M0 0 C1.9453125 -0.29296875 1.9453125 -0.29296875 4.125 -0.1875 C5.40375 -0.125625 6.6825 -0.06375 8 0 C7.67 1.32 7.34 2.64 7 4 C6.34 4 5.68 4 5 4 C5 3.01 5 2.02 5 1 C2.69 1.66 0.38 2.32 -2 3 C-1.34 2.01 -0.68 1.02 0 0 Z " fill="#BCE2DC" transform="translate(646,732)"/>
<path d="M0 0 C0.66 0.33 1.32 0.66 2 1 C-1.96 4.465 -1.96 4.465 -6 8 C-6.66 7.67 -7.32 7.34 -8 7 C-5.36 4.69 -2.72 2.38 0 0 Z " fill="#6BBBBE" transform="translate(599,579)"/>
<path d="M0 0 C-4.26970954 3.04979253 -4.26970954 3.04979253 -7.75 2.8125 C-10 2 -10 2 -11 0 C-3.375 -1.125 -3.375 -1.125 0 0 Z " fill="#7DC4C2" transform="translate(753,563)"/>
<path d="M0 0 C0.66 0.33 1.32 0.66 2 1 C-0.97 4.96 -0.97 4.96 -4 9 C-4.33 8.01 -4.66 7.02 -5 6 C-3.59554165 3.7363436 -1.8032087 1.9791315 0 0 Z " fill="#66B8B6" transform="translate(627,554)"/>
<path d="M0 0 C0 3.57575896 -1.08840607 5.05295935 -3 8 C-4.32 7.34 -5.64 6.68 -7 6 C-4.69 4.02 -2.38 2.04 0 0 Z " fill="#90D1C8" transform="translate(470,522)"/>
<path d="M0 0 C0.99 0.33 1.98 0.66 3 1 C2.67 1.99 2.34 2.98 2 4 C1.34 4 0.68 4 0 4 C-0.33 6.31 -0.66 8.62 -1 11 C-1.33 11 -1.66 11 -2 11 C-1.85892253 9.54119891 -1.71197585 8.08296449 -1.5625 6.625 C-1.48128906 5.81289063 -1.40007813 5.00078125 -1.31640625 4.1640625 C-1 2 -1 2 0 0 Z " fill="#6EBFC1" transform="translate(580,750)"/>
<path d="M0 0 C0.33 0 0.66 0 1 0 C1.33 1.98 1.66 3.96 2 6 C3.98 6 5.96 6 8 6 C5.25002779 7.4731994 3.10380501 8.22404875 0 9 C0 6.03 0 3.06 0 0 Z " fill="#58B9BA" transform="translate(410,736)"/>
<path d="M0 0 C0.625 1.875 0.625 1.875 1 4 C0.34 4.66 -0.32 5.32 -1 6 C-3.625 5.625 -3.625 5.625 -6 5 C-2.25 1.125 -2.25 1.125 0 0 Z " fill="#6DC5C7" transform="translate(572,596)"/>
<path d="M0 0 C0.99 0 1.98 0 3 0 C2.46930939 3.82097239 1.50298434 6.06171403 -1 9 C-0.67 6.03 -0.34 3.06 0 0 Z " fill="#58C1B5" transform="translate(463,529)"/>
<path d="M0 0 C0.33 0.99 0.66 1.98 1 3 C1.99 3 2.98 3 4 3 C4 3.66 4 4.32 4 5 C2.02 5.33 0.04 5.66 -2 6 C-1.125 1.125 -1.125 1.125 0 0 Z " fill="#5EB7BB" transform="translate(780,471)"/>
<path d="M0 0 C1.69141656 0.08963062 3.37959602 0.24577676 5.0625 0.4375 C6.44115234 0.59025391 6.44115234 0.59025391 7.84765625 0.74609375 C8.55792969 0.82988281 9.26820313 0.91367187 10 1 C10 1.33 10 1.66 10 2 C5.05 2.33 0.1 2.66 -5 3 C-3.68 2.34 -2.36 1.68 -1 1 C-0.67 0.67 -0.34 0.34 0 0 Z " fill="#77CAC1" transform="translate(338,468)"/>
<path d="M0 0 C0.6875 1.6875 0.6875 1.6875 1 4 C-1.26153846 8.63076923 -1.26153846 8.63076923 -4 10 C-4.66 9.34 -5.32 8.68 -6 8 C-5.195625 7.79375 -4.39125 7.5875 -3.5625 7.375 C-2.716875 6.92125 -1.87125 6.4675 -1 6 C-0.10169161 2.94727535 -0.10169161 2.94727535 0 0 Z " fill="#74C0BB" transform="translate(384,772)"/>
<path d="M0 0 C0.66 0 1.32 0 2 0 C2 0.99 2 1.98 2 3 C4.97 3.495 4.97 3.495 8 4 C8 4.33 8 4.66 8 5 C5.36 5 2.72 5 0 5 C0 3.35 0 1.7 0 0 Z " fill="#DBE9E2" transform="translate(578,778)"/>
<path d="M0 0 C2.31 0.33 4.62 0.66 7 1 C7 1.33 7 1.66 7 2 C5.35 2 3.7 2 2 2 C1.67 2.99 1.34 3.98 1 5 C0.34 5 -0.32 5 -1 5 C-0.67 3.35 -0.34 1.7 0 0 Z " fill="#45BAB4" transform="translate(366,769)"/>
<path d="M0 0 C0.66 0 1.32 0 2 0 C1.67 2.31 1.34 4.62 1 7 C0.34 7 -0.32 7 -1 7 C-1.04254356 5.00045254 -1.04080783 2.99958364 -1 1 C-0.67 0.67 -0.34 0.34 0 0 Z " fill="#FDFCF8" transform="translate(474,751)"/>
<path d="M0 0 C1.98 0 3.96 0 6 0 C6 0.99 6 1.98 6 3 C4.02 3 2.04 3 0 3 C0 2.01 0 1.02 0 0 Z " fill="#448796" transform="translate(674,749)"/>
<path d="M0 0 C-1.0975223 2.99324263 -1.67682892 3.84610901 -4.625 5.25 C-5.40875 5.4975 -6.1925 5.745 -7 6 C-7 5.01 -7 4.02 -7 3 C-2.77777778 0 -2.77777778 0 0 0 Z " fill="#58B8B1" transform="translate(393,479)"/>
<path d="M0 0 C0.33 0 0.66 0 1 0 C0.88637738 1.4800841 0.75877092 2.95910074 0.625 4.4375 C0.52058594 5.67306641 0.52058594 5.67306641 0.4140625 6.93359375 C0.27742188 7.61550781 0.14078125 8.29742187 0 9 C-0.99 9.495 -0.99 9.495 -2 10 C-1.125 2.25 -1.125 2.25 0 0 Z " fill="#4AB7B1" transform="translate(329,477)"/>
<path d="M0 0 C0.66 0.33 1.32 0.66 2 1 C0.35 3.64 -1.3 6.28 -3 9 C-3.33 7.68 -3.66 6.36 -4 5 C-2.0625 2.25 -2.0625 2.25 0 0 Z " fill="#5EB4B1" transform="translate(529,455)"/>
<path d="M0 0 C0.33 0 0.66 0 1 0 C1 3.63 1 7.26 1 11 C-0.32 11.33 -1.64 11.66 -3 12 C-2.34 11.01 -1.68 10.02 -1 9 C-0.54605448 6.72087062 -0.54605448 6.72087062 -0.375 4.3125 C-0.30023437 3.50425781 -0.22546875 2.69601562 -0.1484375 1.86328125 C-0.09945312 1.24839844 -0.05046875 0.63351562 0 0 Z " fill="#80CDD2" transform="translate(521,558)"/>
<path d="M0 0 C0.66 0 1.32 0 2 0 C1.625 2.4375 1.625 2.4375 1 5 C0.01 5.495 0.01 5.495 -1 6 C-1.66 5.34 -2.32 4.68 -3 4 C-1.625 2 -1.625 2 0 0 Z " fill="#64BAB5" transform="translate(418,453)"/>
<path d="M0 0 C0.66 0.66 1.32 1.32 2 2 C1.74739753 5.78903708 -0.27849443 7.54186593 -3 10 C-2.01 6.7 -1.02 3.4 0 0 Z " fill="#83BBBE" transform="translate(523,433)"/>
<path d="M0 0 C2.625 -0.1875 2.625 -0.1875 5 0 C2.03716687 2.38672669 -0.94270509 4.7353371 -4 7 C-2.79618552 4.50638429 -1.54571278 2.31856917 0 0 Z " fill="#DCF2F1" transform="translate(709,423)"/>
</svg>
